Coordinates
version=1
nRows=20
nColumns=38
inDegrees=no

Units are S.I. units (second, meters, Newtons, ...)
If the header above contains a line with 'inDegrees', this indicates whether rotational values are in degrees (yes) or radians (no).

endheader
time	pelvis_tilt	pelvis_list	pelvis_rotation	pelvis_tx	pelvis_ty	pelvis_tz	hip_flexion_r	hip_adduction_r	hip_rotation_r	knee_angle_r	ankle_angle_r	subtalar_angle_r	mtp_angle_r	hip_flexion_l	hip_adduction_l	hip_rotation_l	knee_angle_l	ankle_angle_l	subtalar_angle_l	mtp_angle_l	lumbar_extension	lumbar_bending	lumbar_rotation	arm_flex_r	arm_add_r	arm_rot_r	elbow_flex_r	pro_sup_r	wrist_flex_r	wrist_dev_r	arm_flex_l	arm_add_l	arm_rot_l	elbow_flex_l	pro_sup_l	wrist_flex_l	wrist_dev_l
0	1.31658	1.48398	0.233485	0.845406	-0.377032	0.973094	0.0664311	0.0639922	-0.223954	0.180292	0.0776209	0	0	0.00473283	-0.105993	-0.242257	0.0560643	0.0560405	0	0	-0.064385	0.114377	0.0162152	-0.189223	-0.264776	0.184779	0.721245	1.13581	0	0	-0.152449	-0.176102	0.0880537	0.623616	0.335828	0	0
0.01	1.28514	1.4803	0.268536	0.845685	-0.376007	0.972566	0.0706438	0.0671609	-0.228228	0.183488	0.0801619	0	0	0.00571923	-0.108734	-0.23674	0.0505144	0.0526778	0	0	-0.0581854	0.112002	0.0197662	-0.190853	-0.208432	0.00961678	0.686695	1.33225	0	0	-0.151737	-0.204535	0.359006	0.644687	0.927553	0	0
0.02	1.31849	1.47756	0.239035	0.84576	-0.37501	0.972312	0.0670188	0.071243	-0.231354	0.183512	0.0816486	0	0	0.000544359	-0.111941	-0.232296	0.0453862	0.0503368	0	0	-0.0613384	0.116075	0.00757265	-0.184342	-0.207092	0.0139224	0.686394	1.33518	0	0	-0.151816	-0.175646	0.111142	0.622127	0.348685	0	0
0.03	1.38149	1.47588	0.179939	0.845679	-0.374142	0.972319	0.0596531	0.0746879	-0.234368	0.182631	0.0825998	0	0	-0.00756558	-0.114487	-0.228398	0.0409098	0.0484491	0	0	-0.0649455	0.116871	0.0056229	-0.18345	-0.203432	0.0098673	0.684714	1.33292	0	0	-0.151296	-0.201139	0.367455	0.642941	0.882155	0	0
0.04	1.48565	1.47614	0.0797468	0.84584	-0.373332	0.972537	0.0468852	0.0766201	-0.237123	0.180367	0.0844557	0	0	-0.0200946	-0.115549	-0.225818	0.0370474	0.0469771	0	0	-0.075031	0.113953	0.00018995	-0.17781	-0.198937	0.0111237	0.681215	1.33321	0	0	-0.129197	-0.240372	0.417206	0.647615	0.213216	0	0
0.05	1.34594	1.48718	0.219115	0.846419	-0.372029	0.970957	0.0515888	0.0679948	-0.222864	0.167043	0.0841963	0	0	-0.0114622	-0.101339	-0.224221	0.0335094	0.0439778	0	0	-0.0610561	0.101489	-0.0104376	-0.173951	-0.193437	0.0145211	0.67995	1.33898	0	0	-0.151265	-0.177661	0.132089	0.61718	0.270281	0	0
0.06	1.5051	1.47101	0.0621311	0.845829	-0.371432	0.973292	0.0173931	0.0884184	-0.245295	0.131726	0.0683276	0	0	-0.0267295	-0.120125	-0.224851	0.0298976	0.0411247	0	0	-0.0750352	0.123324	-0.0129973	-0.166464	-0.195461	0.0146426	0.675884	1.33972	0	0	-0.14214	-0.166544	0.129012	0.602557	0.286517	0	0
0.07	1.49305	1.47726	0.0754173	0.846286	-0.370094	0.972805	0.0319972	0.0848729	-0.216153	0.154141	0.0705207	0	0	-0.0294233	-0.113227	-0.224676	0.0254246	0.0396528	0	0	-0.0708071	0.114661	-0.0179778	-0.164847	-0.18967	0.0140396	0.674112	1.33936	0	0	-0.142915	-0.167419	0.130583	0.602829	0.287705	0	0
0.08	1.4873	1.47687	0.080167	0.846416	-0.369196	0.972964	0.0334838	0.0861717	-0.211675	0.155799	0.0688539	0	0	-0.0322945	-0.113197	-0.226364	0.0210425	0.037526	0	0	-0.0682794	0.114808	-0.0193998	-0.162562	-0.186785	0.0132541	0.673583	1.33849	0	0	-0.14061	-0.165094	0.133401	0.599579	0.289108	0	0
0.09	1.58723	1.46442	-0.0181561	0.845899	-0.368309	0.974679	0.0222985	0.0968111	-0.218784	0.158823	0.0660316	0	0	-0.046402	-0.126368	-0.227298	0.0155326	0.0350467	0	0	-0.0763913	0.128653	-0.0163008	-0.161777	-0.186665	0.0090428	0.673877	1.33224	0	0	-0.134668	-0.185439	0.39631	0.618035	0.8448	0	0
0.1	1.58012	1.46462	-0.0121259	0.846021	-0.367308	0.974718	0.0198813	0.097316	-0.21503	0.154601	0.0648551	0	0	-0.049465	-0.12577	-0.228178	0.0107015	0.033078	0	0	-0.0734888	0.12816	-0.0176897	-0.160427	-0.18439	0.0104752	0.675902	1.32549	0	0	-0.133671	-0.182898	0.394523	0.616371	0.858112	0	0
0.11	1.60985	1.44335	-0.0479928	0.8462	-0.367508	0.976659	0.0298248	0.111978	-0.259029	0.183681	0.0672356	0	0	-0.0564346	-0.148864	-0.234767	0.00897128	0.0315192	0	0	-0.080985	0.152949	-0.0108098	-0.154229	-0.187765	0.0118543	0.676015	1.32036	0	0	-0.124717	-0.173187	0.397563	0.60674	0.863962	0	0
0.12	1.56906	1.46291	-0.00512828	0.846317	-0.365358	0.974815	0.0155496	0.100795	-0.20553	0.147064	0.0609647	0	0	-0.0556487	-0.126968	-0.229732	0.00254676	0.0302922	0	0	-0.0683245	0.129649	-0.0173063	-0.159271	-0.182666	0.0204219	0.683363	1.2946	0	0	-0.131589	-0.178825	0.396552	0.616974	0.88824	0	0
0.13	1.60378	1.44061	-0.0469899	0.846539	-0.365582	0.976746	0.0252538	0.116653	-0.249953	0.176921	0.0637653	0	0	-0.0630385	-0.151175	-0.236717	0.00184849	0.0295916	0	0	-0.0767352	0.155614	-0.00852428	-0.153487	-0.187348	0.0254528	0.684564	1.28928	0	0	-0.122235	-0.169607	0.402012	0.606864	0.895809	0	0
0.14	1.57776	1.44324	-0.0258845	0.84688	-0.364847	0.976209	0.0439282	0.105484	-0.285907	0.213552	0.0846406	0	0	-0.0626205	-0.147934	-0.2391	0	0.0297165	0	0	-0.0717594	0.152506	-0.00519167	-0.153407	-0.186794	0.0305701	0.688938	1.28164	0	0	-0.120958	-0.169322	0.408653	0.606229	0.908289	0	0
0.15	1.56296	1.44426	-0.0148123	0.846988	-0.364059	0.975956	0.04867	0.102556	-0.293185	0.222503	0.091182	0	0	-0.0636494	-0.14616	-0.240563	0	0.0295767	0	0	-0.068406	0.151436	-0.00275705	-0.152897	-0.187122	0.0364011	0.692589	1.27242	0	0	-0.119339	-0.16835	0.413012	0.606565	0.922144	0	0
0.16	1.53249	1.46383	0.0152312	0.847255	-0.362069	0.97417	0.0309989	0.0937449	-0.230751	0.180682	0.0833791	0	0	-0.0647237	-0.123816	-0.238131	0	0.0293626	0	0	-0.0589533	0.127965	-0.00654812	-0.156457	-0.184984	0.0541504	0.700151	1.2307	0	0	-0.126246	-0.173454	0.403731	0.61774	0.966139	0	0
0.17	1.54502	1.46379	-0.0014865	0.84745	-0.361235	0.974207	0.0284351	0.0940735	-0.226944	0.180243	0.083776	0	0	-0.0697845	-0.123059	-0.240927	0	0.0290848	0	0	-0.0594987	0.127923	-0.00380891	-0.154535	-0.186311	0.0630552	0.702695	1.21823	0	0	-0.124658	-0.172118	0.40281	0.619511	0.981549	0	0
0.18	1.59563	1.44323	-0.0598964	0.847624	-0.361494	0.976114	0.0368639	0.106873	-0.270856	0.212122	0.0873111	0	0	-0.0792924	-0.14478	-0.249218	0	0.0287806	0	0	-0.0704028	0.15191	0.00506029	-0.146913	-0.191924	0.0700797	0.701133	1.21531	0	0	-0.115509	-0.1636	0.404657	0.611151	0.988254	0	0
0.19	1.60004	1.44325	-0.0677154	0.847776	-0.36075	0.976031	0.0381503	0.105532	-0.275488	0.218782	0.091739	0	0	-0.0826179	-0.14413	-0.252009	0	0.0294555	0	0	-0.0703165	0.151631	0.00703529	-0.144279	-0.192713	0.0773943	0.701507	1.2131	0	0	-0.113275	-0.162731	0.405493	0.611178	0.995795	0	0
